<svg width="30" height="30" viewBox="0 0 30 30" fill="none" xmlns="http://www.w3.org/2000/svg">
<g clip-path="url(#clip0)">
<path d="M26.5625 -0.000244141H3.4375C1.54125 -0.000244141 0 1.54101 0 3.43726V16.5623C0 18.4585 1.54125 19.9998 3.4375 19.9998H13.4738C14.5712 16.0423 18.1975 13.1248 22.5 13.1248C25.5688 13.1248 28.2887 14.6135 30 16.8985V3.43726C30 1.54101 28.4587 -0.000244141 26.5625 -0.000244141ZM7.8125 5.62476H4.6875C4.17 5.62476 3.75 5.20476 3.75 4.68726C3.75 4.16976 4.17 3.74976 4.6875 3.74976H7.8125C8.33 3.74976 8.75 4.16976 8.75 4.68726C8.75 5.20476 8.33 5.62476 7.8125 5.62476ZM15 13.7498C12.9325 13.7498 11.25 12.0673 11.25 9.99976C11.25 7.93226 12.9325 6.24976 15 6.24976C17.0675 6.24976 18.75 7.93226 18.75 9.99976C18.75 12.0673 17.0675 13.7498 15 13.7498Z" fill="#141A25"/>
<path d="M22.5 14.9998C18.365 14.9998 15 18.3648 15 22.4998C15 26.6348 18.365 29.9998 22.5 29.9998C26.635 29.9998 30 26.6348 30 22.4998C30 18.3648 26.635 14.9998 22.5 14.9998ZM25.9375 23.7498H23.75V25.9373C23.75 26.6273 23.19 27.1873 22.5 27.1873C21.81 27.1873 21.25 26.6273 21.25 25.9373V23.7498H19.0625C18.3725 23.7498 17.8125 23.1898 17.8125 22.4998C17.8125 21.8098 18.3725 21.2498 19.0625 21.2498H21.25V19.0623C21.25 18.3723 21.81 17.8123 22.5 17.8123C23.19 17.8123 23.75 18.3723 23.75 19.0623V21.2498H25.9375C26.6275 21.2498 27.1875 21.8098 27.1875 22.4998C27.1875 23.1898 26.6275 23.7498 25.9375 23.7498Z" fill="#141A25"/>
</g>
<defs>
<clipPath id="clip0">
<rect width="30" height="30" fill="white" transform="translate(0 -0.000244141)"/>
</clipPath>
</defs>
</svg>
