<svg width="130" height="130" viewBox="0 0 130 130" fill="none" xmlns="http://www.w3.org/2000/svg">
<circle cx="65" cy="65" r="65" fill="#F8EC68"/>
<g clip-path="url(#clip0)">
<path d="M77.0014 61.0222V57.864L75.2314 61.0222H77.0014Z" fill="#141A25"/>
<path d="M89.1322 57.4565H97.9755C97.0408 44.3979 86.5776 33.9347 73.5189 33V41.8434H69.7086V33C62.4232 33.5215 55.9465 37.0088 51.4805 42.258L57.4842 48.2499C58.5641 49.3275 59.1593 50.7612 59.1602 52.287C59.1611 53.8128 58.5674 55.2472 57.4884 56.3261L56.3844 57.43C55.0544 58.7601 54.699 60.6255 55.3284 62.9742C56.7355 68.2252 62.7989 74.2888 68.05 75.6958C70.3989 76.325 72.2642 75.9698 73.5943 74.6398L74.6892 73.5449C75.7673 72.4669 77.2007 71.8731 78.7253 71.8731C80.2498 71.8731 81.6833 72.4669 82.7613 73.545L88.7142 79.4979C93.9653 75.0318 97.454 68.5538 97.9755 61.2669H89.1322V57.4565ZM70.817 66.4976H61.779V64.9278L66.8166 58.4752C67.5925 57.4875 67.7289 57.0269 67.7289 56.4237C67.7289 55.9772 67.6223 55.6373 67.393 55.3542C67.2573 55.1901 66.9962 54.9653 66.344 54.9653C65.5166 54.9653 64.9635 55.5746 64.8644 56.5953L64.7971 57.2879L62.0237 56.7595L62.0557 56.2033C62.1198 55.0918 62.5632 54.1395 63.3734 53.373C64.2019 52.6099 65.1992 52.2259 66.344 52.2259C67.7342 52.2259 68.834 52.6755 69.6125 53.5622C70.2533 54.2915 70.5783 55.2543 70.5783 56.4235C70.5783 57.5286 70.2 58.5668 69.4218 59.5975L66.2053 63.7584H70.8171V66.4976H70.817ZM81.4485 63.7613H79.8508V66.4974H77.0014V63.7613H71.4189V62.3144L77.1217 52.373H79.8508V61.0223H81.4485V63.7613Z" fill="#141A25"/>
<path d="M86.038 82.2154L85.601 81.7783L80.0645 76.2417C80.032 76.2092 79.9981 76.1785 79.9648 76.1468C79.22 75.5026 78.0905 75.5323 77.3837 76.2392L76.2887 77.3341C73.9929 79.6299 70.717 80.355 67.0639 79.3764C64.3586 78.6515 61.5746 77.0343 59.1098 74.9241C57.9468 73.9571 56.8489 72.8506 55.8861 71.661C53.881 69.2597 52.3482 66.5734 51.6481 63.9605C50.6693 60.3075 51.3946 57.0314 53.6905 54.7357L54.7943 53.6318C55.1529 53.2731 55.3503 52.7963 55.35 52.289C55.3498 51.832 55.1878 51.4007 54.8934 51.0575C54.8582 51.0204 54.8239 50.9828 54.7876 50.9466L49.1999 45.3706L48.8077 44.9793C47.7301 43.904 46.2982 43.3118 44.7758 43.3118C43.2513 43.3118 41.8178 43.9054 40.7397 44.9835L37.7502 47.9731C32.4834 53.2398 31.5861 60.9752 35.2232 69.7542C38.0757 76.6387 43.5594 83.6946 50.2686 89.1124C57.3662 94.844 64.8386 98 71.3117 98H71.3153C75.9678 97.9992 79.9165 96.4093 83.0515 93.2742L86.0382 90.2874C88.2636 88.0619 88.2636 84.4409 86.038 82.2154Z" fill="#141A25"/>
</g>
<defs>
<clipPath id="clip0">
<rect width="65" height="65" fill="white" transform="translate(33 33)"/>
</clipPath>
</defs>
</svg>
