<svg width="24" height="23" viewBox="0 0 24 23" fill="none" xmlns="http://www.w3.org/2000/svg">
<g clip-path="url(#clip0)">
<path d="M11.7067 20.1546C13.1985 20.1546 14.4079 18.9516 14.4079 17.4676C14.4079 15.9836 13.1985 14.7806 11.7067 14.7806C10.215 14.7806 9.00562 15.9836 9.00562 17.4676C9.00562 18.9516 10.215 20.1546 11.7067 20.1546Z" fill="#141A25"/>
<path d="M18.1623 10.9938C18.1222 10.9529 18.0799 10.9163 18.0387 10.8787L17.9173 10.7646C17.8973 10.7435 17.875 10.728 17.8494 10.7081C14.3567 7.55148 9.01119 7.67664 5.67765 10.9927L5.28684 11.3826L4.74572 11.9209C4.08658 12.5766 4.08992 13.6454 4.75018 14.3022C5.41154 14.9612 6.48598 14.9623 7.14401 14.3066L8.07704 13.3785C10.197 11.2707 13.6452 11.2707 15.764 13.3774L16.4376 14.0264C17.0901 14.6754 18.1545 14.6743 18.8103 14.0209C19.1276 13.7063 19.3024 13.2865 19.3035 12.8402C19.3047 12.396 19.1321 11.9763 18.8148 11.6628L18.1623 10.9938Z" fill="#141A25"/>
<path d="M22.764 7.67218L22.2029 7.11396C22.2007 7.11174 22.1995 7.10842 22.1951 7.10731L21.752 6.66428C21.674 6.58786 21.5894 6.5214 21.5003 6.46381C15.8075 1.49189 7.14849 1.64473 1.63711 6.91903C1.61039 6.94339 1.58033 6.96001 1.55361 6.98659L0.540404 7.99559C-0.0608373 8.59258 -0.0574971 9.56393 0.547084 10.1653C1.15055 10.7657 2.12701 10.7701 2.72825 10.1709L3.74145 9.16409C3.74814 9.15523 3.7537 9.14748 3.76038 9.14194C8.21736 4.85893 15.2875 4.83235 19.7801 9.05444L20.5773 9.84857C21.1774 10.4456 22.1561 10.4433 22.7596 9.84304C23.3619 9.24162 23.3642 8.26917 22.764 7.67218Z" fill="#141A25"/>
</g>
<defs>
<clipPath id="clip0">
<rect width="23.1211" height="23" fill="white" transform="translate(0.0917969)"/>
</clipPath>
</defs>
</svg>
