<svg width="130" height="130" viewBox="0 0 130 130" fill="none" xmlns="http://www.w3.org/2000/svg">
<circle cx="65" cy="65" r="65" fill="#F8EC68"/>
<g clip-path="url(#clip0)">
<path d="M76.995 96.9942V93.1862H70.5428V90.648H55.3957V93.1862H48.9434V96.9942H76.995Z" fill="#141A25"/>
<path d="M77.7006 62.8123V53.5155H69.9407V45.7798H33V86.8397H55.3956V86.84H70.5426V86.8397H92.9383V53.5154H87.2929L77.7006 62.8123ZM62.9691 54.3848C66.0765 54.3848 68.6047 56.9129 68.6047 60.0203C68.6047 63.1277 66.0766 65.6558 62.9691 65.6558C59.8616 65.6558 57.3336 63.1277 57.3336 60.0203C57.3336 56.9129 59.8617 54.3848 62.9691 54.3848ZM72.3363 78.92H53.602V72.9489C53.602 68.9278 56.8735 65.6563 60.8946 65.6563H65.0436C69.0648 65.6563 72.3363 68.9278 72.3363 72.9489V78.92Z" fill="#141A25"/>
<path d="M81.5089 49.7076V53.8189L85.7508 49.7076H98.0004V32.0058H73.749V49.7076H81.5089Z" fill="#141A25"/>
<path d="M62.9691 61.848C63.9768 61.848 64.7968 61.0281 64.7968 60.0204C64.7968 59.0127 63.977 58.1929 62.9691 58.1929C61.9613 58.1929 61.1416 59.0127 61.1416 60.0204C61.1416 61.0281 61.9614 61.848 62.9691 61.848Z" fill="#141A25"/>
<path d="M65.0439 69.4641H60.8949C58.9734 69.4641 57.4102 71.0273 57.4102 72.9488V75.112H68.5287V72.9488C68.5287 71.0273 66.9654 69.4641 65.0439 69.4641Z" fill="#141A25"/>
</g>
<defs>
<clipPath id="clip0">
<rect width="65" height="65" fill="white" transform="translate(33 32)"/>
</clipPath>
</defs>
</svg>
