<svg width="30" height="30" viewBox="0 0 30 30" fill="none" xmlns="http://www.w3.org/2000/svg">
<path d="M26.8359 13.5938H12.1875V5.625C12.1875 4.84834 11.5579 4.21875 10.7812 4.21875C10.0046 4.21875 9.375 4.84834 9.375 5.625V13.5938H7.5V5.625C7.5 4.84834 6.87041 4.21875 6.09375 4.21875C5.31709 4.21875 4.6875 4.84834 4.6875 5.625V13.5938H3.16406C1.41938 13.5938 0 15.0131 0 16.7578V22.6172C0 24.3619 1.41938 25.7812 3.16406 25.7812H26.8359C28.5806 25.7812 30 24.3619 30 22.6172V16.7578C30 15.0131 28.5806 13.5938 26.8359 13.5938ZM6.09375 21.0938H5.15625C4.37959 21.0938 3.75 20.4642 3.75 19.6875C3.75 18.9108 4.37959 18.2812 5.15625 18.2812H6.09375C6.87041 18.2812 7.5 18.9108 7.5 19.6875C7.5 20.4642 6.87041 21.0938 6.09375 21.0938ZM10.7812 21.0938H9.84375C9.06709 21.0938 8.4375 20.4642 8.4375 19.6875C8.4375 18.9108 9.06709 18.2812 9.84375 18.2812H10.7812C11.5579 18.2812 12.1875 18.9108 12.1875 19.6875C12.1875 20.4642 11.5579 21.0938 10.7812 21.0938ZM15.4688 21.0938H14.5312C13.7546 21.0938 13.125 20.4642 13.125 19.6875C13.125 18.9108 13.7546 18.2812 14.5312 18.2812H15.4688C16.2454 18.2812 16.875 18.9108 16.875 19.6875C16.875 20.4642 16.2454 21.0938 15.4688 21.0938Z" fill="#141A25"/>
</svg>
