<svg width="130" height="130" viewBox="0 0 130 130" fill="none" xmlns="http://www.w3.org/2000/svg">
<circle cx="65" cy="65" r="65" fill="#F8EC68"/>
<g clip-path="url(#clip0)">
<path d="M60.7702 55.3745C66.9389 55.3745 71.9575 50.3559 71.9575 44.1873C71.9575 38.0186 66.9389 33 60.7702 33C54.6016 33 49.583 38.0186 49.583 44.1873C49.583 50.3559 54.6016 55.3745 60.7702 55.3745Z" fill="#141A25"/>
<path d="M78.9767 65.2159C77.4531 60.2287 73.1939 56.425 67.9556 55.5609L62.6779 63.0748V79.5385H58.8623V63.075L53.5843 55.5609C46.9992 56.6472 41.96 62.3796 41.96 69.2679V93.8259H68.882C66.7622 90.7975 65.5164 87.1145 65.5164 83.1454C65.5164 74.6583 71.2092 67.4766 78.9767 65.2159ZM54.4677 72.3564H50.2412V68.1299H54.4677V72.3564Z" fill="#141A25"/>
<path d="M84.1866 68.291C82.5781 68.291 81.0288 68.549 79.5769 69.0241C73.636 70.9681 69.332 76.5633 69.332 83.1454C69.332 87.3341 71.0753 91.1229 73.8738 93.826C76.5476 96.4085 80.1845 98 84.1866 98C92.3774 98 99.0412 91.3362 99.0412 83.1454C99.0412 74.9546 92.3775 68.291 84.1866 68.291ZM82.5997 89.485L79.5801 86.4654L77.1418 84.0271L79.5801 81.5888L79.8398 81.329L82.5997 84.0889L88.5335 78.1552L91.2316 80.8532L82.5997 89.485Z" fill="#141A25"/>
</g>
<defs>
<clipPath id="clip0">
<rect width="65" height="65" fill="white" transform="translate(38 33)"/>
</clipPath>
</defs>
</svg>
