<svg width="40" height="30" viewBox="0 0 40 30" fill="none" xmlns="http://www.w3.org/2000/svg">
<g clip-path="url(#clip0)">
<path d="M28.5485 7.01564V-0.000488281H15.9452L11.4517 2.90733V7.01564H7.41943V29.9995H32.5807V7.01564H28.5485ZM14.1936 3.83987L16.9764 2.05596H25.8065V10.0398H14.1936V3.83987ZM15.4839 27.5802H10.4839V24.314H15.4839V27.5802ZM15.4839 22.3785H10.4839V18.9914H15.4839V22.3785ZM22.5807 27.5802H17.4194V24.314H22.5807V27.5802ZM22.5807 22.3785H17.4194V18.9914H22.5807V22.3785ZM29.5162 27.5802H24.5162V24.314H29.5162V27.5802ZM29.5162 22.3785H24.5162V18.9914H29.5162V22.3785ZM29.5162 16.814H10.4839V12.2173H29.5162V16.814Z" fill="#141A25"/>
</g>
<defs>
<clipPath id="clip0">
<rect width="40" height="30" fill="white" transform="translate(0 -0.000488281)"/>
</clipPath>
</defs>
</svg>
