<svg width="23" height="23" viewBox="0 0 23 23" fill="none" xmlns="http://www.w3.org/2000/svg">
<g clip-path="url(#clip0)">
<path d="M20.7 2.3H19.55V1.15C19.55 0.46 19.09 0 18.4 0C17.71 0 17.25 0.46 17.25 1.15V2.3H5.75V1.15C5.75 0.46 5.29 0 4.6 0C3.91 0 3.45 0.46 3.45 1.15V2.3H1.15C0.575 2.3 0 2.76 0 3.45V19.55C0 20.24 0.575 20.7 1.15 20.7H8.165C7.36 19.32 6.9 17.71 6.9 16.1C6.9 11.04 11.04 6.9 16.1 6.9C18.285 6.9 20.24 7.705 21.85 8.97V3.45C21.85 2.875 21.275 2.3 20.7 2.3Z" fill="#141A25"/>
<path d="M16.1 9.19995C12.305 9.19995 9.19995 12.305 9.19995 16.1C9.19995 19.8949 12.305 23 16.1 23C19.895 23 23 19.8949 23 16.1C23 12.305 19.895 9.19995 16.1 9.19995ZM18.4 17.25H16.1C15.41 17.25 14.95 16.7899 14.95 16.1V12.65C14.95 11.96 15.41 11.5 16.1 11.5C16.79 11.5 17.25 11.96 17.25 12.65V14.95H18.4C19.09 14.95 19.55 15.41 19.55 16.1C19.55 16.7899 19.09 17.25 18.4 17.25Z" fill="#141A25"/>
</g>
<defs>
<clipPath id="clip0">
<rect width="23" height="23" fill="white"/>
</clipPath>
</defs>
</svg>
