<svg width="100" height="100" viewBox="0 0 100 100" fill="none" xmlns="http://www.w3.org/2000/svg">
<path d="M97.5142 66.7143C97.5142 65.2 96.2285 64 94.6285 64H5.34275C3.74275 64 2.45703 65.2286 2.45703 66.7143V77H97.5142V66.7143Z" fill="#D9E3E8"/>
<path d="M2.48633 77V87.2857C2.48633 88.8 3.77204 90 5.37204 90H94.6577C96.2577 90 97.5435 88.7714 97.5435 87.2857V77H2.48633Z" fill="#8F989E"/>
<path d="M97.5435 68.5714H2.48633V85.4H97.5435V68.5714Z" fill="#435159"/>
<path d="M17.2296 12.4C17.2296 11.0857 16.601 10 15.8296 10C15.0582 10 14.4296 11.0857 14.4296 12.4L13.8867 37.0571V64H17.7724V37.0571L17.2296 12.4Z" fill="#8F989E"/>
<path d="M85.544 12.4C85.544 11.0857 84.9155 10 84.144 10C83.3726 10 82.744 11.0857 82.744 12.4L82.2012 37.0571V64H86.0869V37.0571L85.544 12.4Z" fill="#8F989E"/>
<path d="M15.8283 78.9143C16.8856 78.9143 17.7426 78.0572 17.7426 77C17.7426 75.9428 16.8856 75.0857 15.8283 75.0857C14.7711 75.0857 13.9141 75.9428 13.9141 77C13.9141 78.0572 14.7711 78.9143 15.8283 78.9143Z" fill="#15CD72"/>
<path d="M53.17 77.6H46.2271C46.0557 77.6 45.9414 77.4857 45.9414 77.3143V76.6857C45.9414 76.5143 46.0557 76.4 46.2271 76.4H53.17C53.3414 76.4 53.4557 76.5143 53.4557 76.6857V77.3143C53.4557 77.4571 53.3128 77.6 53.17 77.6Z" fill="#00BDFF"/>
<path d="M64.0567 77.6H57.1138C56.9424 77.6 56.8281 77.4857 56.8281 77.3143V76.6857C56.8281 76.5143 56.9424 76.4 57.1138 76.4H64.0567C64.2281 76.4 64.3424 76.5143 64.3424 76.6857V77.3143C64.3424 77.4571 64.1995 77.6 64.0567 77.6Z" fill="#00BDFF"/>
<path d="M74.9434 77.6H68.0006C67.8291 77.6 67.7148 77.4857 67.7148 77.3143V76.6857C67.7148 76.5143 67.8291 76.4 68.0006 76.4H74.9434C75.1148 76.4 75.2291 76.5143 75.2291 76.6857V77.3143C75.2291 77.4571 75.0863 77.6 74.9434 77.6Z" fill="#00BDFF"/>
<path d="M85.8282 77.6H78.8853C78.7139 77.6 78.5996 77.4857 78.5996 77.3143V76.6857C78.5996 76.5143 78.7139 76.4 78.8853 76.4H85.8282C85.9996 76.4 86.1139 76.5143 86.1139 76.6857V77.3143C86.1139 77.4571 85.971 77.6 85.8282 77.6Z" fill="#00BDFF"/>
</svg>
