<svg width="20" height="20" viewBox="0 0 20 20" fill="none" xmlns="http://www.w3.org/2000/svg">
<path d="M9.99994 7.13962C9.50314 7.13962 9.1499 7.34938 9.1499 7.65849V11.8645C9.1499 12.1294 9.50318 12.3943 9.99994 12.3943C10.4746 12.3943 10.861 12.1294 10.861 11.8645V7.65849C10.861 7.34938 10.4746 7.13962 9.99994 7.13962Z" fill="#141A25"/>
<path d="M9.99996 4.54535C9.49215 4.54535 9.09473 4.90965 9.09473 5.32914C9.09473 5.74864 9.49215 6.12399 9.99996 6.12399C10.4968 6.12399 10.8942 5.74864 10.8942 5.32914C10.8942 4.90969 10.4967 4.54535 9.99996 4.54535Z" fill="#141A25"/>
<path d="M10 0C5.24992 0 1.40625 3.84172 1.40625 8.58879C1.40625 12.465 3.95832 15.6836 7.3991 16.7766L9.35348 19.6574C9.49887 19.8717 9.74102 20 10 20C10.259 20 10.5011 19.8717 10.6465 19.6574L12.6009 16.7766C16.0432 15.683 18.5938 12.4633 18.5938 8.58879C18.5938 3.83871 14.747 0 10 0ZM11.9002 15.3554C11.7223 15.4052 11.5678 15.5164 11.4641 15.6692L10 17.8272L8.53598 15.6693C8.43223 15.5164 8.27773 15.4052 8.0998 15.3555C5.17098 14.5365 2.96875 11.843 2.96875 8.58879C2.96875 4.71445 6.12297 1.5625 10 1.5625C13.877 1.5625 17.0312 4.71445 17.0312 8.58879C17.0312 11.8462 14.8258 14.5374 11.9002 15.3554Z" fill="#141A25"/>
</svg>
