<svg width="23" height="23" viewBox="0 0 23 23" fill="none" xmlns="http://www.w3.org/2000/svg">
<g clip-path="url(#clip0)">
<path d="M11.5 0C9.22552 0 7.00211 0.674463 5.11095 1.9381C3.21978 3.20174 1.7458 4.99779 0.875391 7.09914C0.00498271 9.20049 -0.222756 11.5128 0.220974 13.7435C0.664705 15.9743 1.75997 18.0234 3.36828 19.6317C4.97658 21.24 7.02569 22.3353 9.25647 22.779C11.4872 23.2228 13.7995 22.995 15.9009 22.1246C18.0022 21.2542 19.7983 19.7802 21.0619 17.8891C22.3255 15.9979 23 13.7745 23 11.5C23 8.45001 21.7884 5.52494 19.6317 3.36827C17.4751 1.2116 14.55 0 11.5 0ZM18.86 17.48C18.7597 17.0952 18.5909 16.7316 18.3617 16.4067C17.4787 15.6058 16.365 15.1049 15.18 14.9756C13.8256 14.7839 13.6594 14.0172 13.6594 14.0172L13.5444 13.5828C14.0114 13.0614 14.3447 12.4343 14.5156 11.7556C14.7967 11.7556 15.1544 11.4233 15.3461 10.8611C15.5378 10.2989 15.4611 9.72389 15.18 9.58333C15.1338 9.56252 15.0837 9.55176 15.0331 9.55176C14.9824 9.55176 14.9323 9.56252 14.8861 9.58333C15.1992 8.76683 15.3678 7.90208 15.3844 7.02778C15.4034 6.73147 15.3587 6.43454 15.2535 6.1569C15.1483 5.87926 14.985 5.62732 14.7744 5.41798C14.5639 5.20864 14.311 5.04673 14.0327 4.94312C13.7545 4.83951 13.4573 4.79658 13.1611 4.81722C13.1611 4.81722 12.7778 3.83333 10.5289 4.42111C8.28 5.00889 7.55167 6.38889 7.55167 7.30889C7.56582 8.10378 7.69935 8.89202 7.94778 9.64722H7.82C7.53889 9.73667 7.46223 10.2861 7.65389 10.925C7.84556 11.5639 8.22889 11.9089 8.51 11.8194C8.68759 12.548 9.03824 13.223 9.53223 13.7872L9.39167 14.0556C9.13612 14.5667 8.58667 14.7072 7.82 14.95C6.6554 15.1653 5.56228 15.6657 4.63834 16.4067C4.41129 16.7189 4.24248 17.0695 4.14001 17.4417C3.00579 16.0497 2.28958 14.3646 2.07448 12.582C1.85939 10.7993 2.15422 8.99222 2.92478 7.3704C3.69533 5.74858 4.91001 4.37853 6.42785 3.41923C7.94568 2.45994 9.70444 1.95075 11.5 1.95075C13.2956 1.95075 15.0543 2.45994 16.5722 3.41923C18.09 4.37853 19.3047 5.74858 20.0752 7.3704C20.8458 8.99222 21.1406 10.7993 20.9255 12.582C20.7104 14.3646 19.9942 16.0497 18.86 17.4417V17.48Z" fill="url(#paint0_linear)"/>
</g>
<defs>
<linearGradient id="paint0_linear" x1="11.5" y1="0" x2="11.5" y2="23" gradientUnits="userSpaceOnUse">
<stop stop-color="#00BDFF"/>
<stop offset="1" stop-color="#72DAFF"/>
</linearGradient>
<clipPath id="clip0">
<rect width="23" height="23" fill="white"/>
</clipPath>
</defs>
</svg>
