<svg width="386" height="353" viewBox="0 0 386 353" fill="none" xmlns="http://www.w3.org/2000/svg">
<path d="M346.446 185.622C349.035 184.881 351.335 182.504 351.335 179.535C351.335 176.485 349.632 173.519 345.464 173.519C341.613 173.519 339.682 176.116 339.682 179.089C339.682 182.355 342.567 184.436 346.446 185.622Z" fill="#72DAFF" fill-opacity="0.1"/>
<path d="M344.735 194.025C341.015 195.059 338.864 197.736 338.864 201.222C338.8 204.704 341.468 207.979 345.7 207.979C349.639 207.979 352.308 205.378 352.308 201.959C352.301 197.736 349.111 195.208 344.735 194.025Z" fill="#72DAFF" fill-opacity="0.1"/>
<path d="M376.189 84.963C370.947 83.414 365.289 85.472 362.283 90.056C337.63 127.848 266.666 152.262 181.54 152.262C94.078 152.262 25.256 125.132 24.777 90.479V89.593C24.777 88.972 24.681 88.379 24.597 87.78C24.675 87.239 24.763 86.688 24.777 86.125C24.936 72.033 30.037 60.768 40.398 51.645C81.844 15.164 186.596 26.902 188.01 27.052C247.258 32.254 280.007 51.84 280.007 63.397C280.007 76.357 241.476 95.526 188.103 95.811C175.255 95.555 163.728 94.102 153.471 91.982C159.516 92.296 165.339 92.469 170.55 92.469C204.202 92.469 261.18 86.68 261.18 65.008C261.18 43.338 204.202 37.555 170.55 37.555C136.88 37.555 79.918 43.338 79.918 65.008C79.918 65.736 80.145 66.403 80.271 67.096V124.308C105.754 133.234 140.469 139.225 181.541 139.225C228.933 139.225 272.341 131.168 304.786 117.541V63.397C304.786 25.785 243.039 7.01398 190.538 2.40798C185.788 1.86698 73.779 -10.71 24.039 33.023C8.323 46.857 0.247 64.622 0 85.841C0 86.538 0.08 87.218 0.18 87.885C0.104 88.402 0.016 88.919 0 89.46V277.488C0 281.375 1.821 285.042 4.937 287.379C13.19 293.59 21.544 299.301 29.992 304.635V248.711H60.961V322.007C82.336 332.51 104.301 340.293 126.769 345.414V274.154H157.725V350.732C168.887 352.03 180.154 352.727 191.519 352.727C205.874 352.727 219.659 351.677 232.827 349.89V274.154H263.801V344.147C289.3 338.128 311.562 329.728 329.611 321.433V248.71H360.581V305.263C372.359 298.31 379.212 293.229 380.109 292.539C383.214 290.19 385.054 286.528 385.054 282.648V96.823C385.054 91.345 381.451 86.516 376.189 84.963ZM92.289 65.165C94.01 59.849 122.407 49.943 170.55 49.943C218.694 49.943 247.09 59.858 248.814 64.851C247.09 70.165 218.694 80.073 170.55 80.073C122.407 80.072 94.01 70.164 92.289 65.165ZM39.589 215.782C33.718 215.782 28.811 214.447 26.142 213.037L28.216 204.573C30.302 205.611 34.684 206.949 39.072 206.949C43.753 206.949 48.728 204.713 48.728 199.592C48.728 194.607 44.787 191.565 35.13 191.565C32.463 191.565 30.608 191.717 28.68 192.018L31.796 166.683H58.4V175.972H39.678L38.632 183.398C39.678 183.254 40.564 183.254 41.741 183.254C46.36 183.254 51.109 184.296 54.451 186.744C58.086 189.188 60.307 193.204 60.307 198.847C60.308 207.839 52.6 215.782 39.589 215.782ZM143.592 242.11C130.662 242.11 124.352 232.516 124.352 221.004C124.352 211.942 127.696 204.369 132.97 199.46C137.719 195.084 144.04 192.775 151.538 192.414C153.626 192.185 155.03 192.254 156.072 192.33V201.026C154.818 200.946 153.469 201.026 151.686 201.163C141.66 201.984 137.193 207.113 135.937 212.684H136.151C138.527 210.3 141.942 208.889 146.408 208.889C154.503 208.889 161.342 214.624 161.342 224.647C161.351 234.236 153.995 242.11 143.592 242.11ZM266.698 200.137L246.798 241.289H234.843L254.748 202.441V202.289H232.607V193H266.713V200.137H266.698ZM345.248 215.782C332.997 215.782 327.347 208.877 327.347 202.337C327.347 196.546 330.689 192.531 335.963 190.231V190.086C331.29 187.63 328.989 183.698 328.989 179.45C328.989 171.287 336.355 165.863 345.993 165.863C357.286 165.863 361.963 172.399 361.963 178.264C361.963 182.427 359.747 186.511 354.918 188.879V189.111C359.663 190.89 363.83 194.898 363.83 201.061C363.818 209.847 356.465 215.782 345.248 215.782Z" fill="#72DAFF" fill-opacity="0.1"/>
<path d="M142.707 216.924C139.651 216.924 137.126 218.779 136.095 221.164C135.712 221.825 135.578 222.715 135.578 224.053C135.788 229.175 138.245 233.783 143.443 233.783C147.384 233.783 149.915 230.14 149.915 225.235C149.914 220.779 147.533 216.924 142.707 216.924Z" fill="#72DAFF" fill-opacity="0.1"/>
</svg>
