<svg width="182" height="62" viewBox="0 0 182 62" fill="none" xmlns="http://www.w3.org/2000/svg">
<g clip-path="url(#clip0)">
<path d="M139.185 31.4997V22.3721H131.184V12.566H120.17V22.3721H115.047C115.666 23.0923 116.226 23.87 116.722 24.6964C117.569 26.0503 118.257 27.515 118.771 29.0562C119.038 29.8546 119.259 30.6708 119.433 31.4997H120.271V48.7235C120.252 50.5591 120.458 52.3892 120.882 54.1652C121.257 55.7139 121.947 57.1496 122.902 58.3646C123.913 59.5983 125.197 60.5279 126.63 61.0648C128.481 61.7337 130.425 62.044 132.374 61.9817C133.566 61.9803 134.756 61.8668 135.93 61.6424C137.044 61.425 138.142 61.1185 139.215 60.7255V51.63C138.584 51.9928 137.901 52.2362 137.195 52.3498C136.619 52.4472 136.036 52.4978 135.453 52.5011C133.852 52.5011 132.751 52.0426 132.135 51.1853C131.519 50.328 131.213 48.994 131.213 47.2427V31.4997H139.185Z" fill="#141A25"/>
<path d="M63.9372 60.8081V40.4486C63.9406 39.4448 63.8607 38.4428 63.6984 37.4549C63.5605 36.5782 63.2946 35.7315 62.9108 34.9472C62.5508 34.2317 62.0192 33.6373 61.3733 33.2281C60.6027 32.7734 59.7346 32.5533 58.8598 32.5908C57.9488 32.5696 57.0466 32.7882 56.2289 33.2281C55.4842 33.645 54.8398 34.2481 54.3479 34.9885C53.8316 35.7671 53.4484 36.6415 53.2168 37.5695C52.967 38.5563 52.8415 39.5759 52.8439 40.5998V60.8081H41.5747V23.5365H52.4669V28.6986H52.6009C53.0495 27.8458 53.5895 27.0547 54.2096 26.3422C54.8877 25.5559 55.6718 24.888 56.5347 24.3617C57.4553 23.7962 58.4304 23.3441 59.4421 23.0139C60.5295 22.6593 61.6589 22.4831 62.7935 22.4913C64.8006 22.4246 66.7931 22.8852 68.6041 23.8345C70.1178 24.6579 71.4402 25.8479 72.4708 27.3141C73.4675 28.7793 74.188 30.4468 74.5906 32.2195C75.0185 34.0284 75.2366 35.889 75.2399 37.7575V60.8081H63.9372Z" fill="#141A25"/>
<path d="M115.419 42.6216V44.1161C115.421 44.5908 115.399 45.0653 115.352 45.5373H90.6649C90.7376 46.5448 91.0245 47.5197 91.5028 48.3842C91.9869 49.2394 92.6136 49.9875 93.3502 50.5893C94.11 51.2229 94.959 51.7168 95.8638 52.0518C96.7999 52.4007 97.7823 52.5772 98.7712 52.5744C100.334 52.6274 101.885 52.254 103.283 51.4879C104.466 50.8128 105.495 49.8537 106.291 48.6822L114.121 54.0552C112.528 56.5947 110.344 58.6223 107.795 59.9278C104.932 61.3555 101.812 62.059 98.6665 61.9862C96.1987 62.003 93.7464 61.5596 91.4148 60.6751C89.2095 59.8498 87.176 58.5533 85.4325 56.8608C83.6957 55.1456 82.3194 53.0388 81.3982 50.6856C80.3804 48.033 79.8796 45.1771 79.9277 42.3006C79.8919 39.4719 80.3807 36.6647 81.3647 34.0486C82.2556 31.6819 83.5817 29.5409 85.2607 27.7588C86.9368 26.0153 88.9135 24.6547 91.0755 23.7566C93.3892 22.7925 95.8473 22.3105 98.323 22.3354C100.685 22.3037 103.031 22.7707 105.231 23.7107C107.278 24.5972 109.122 25.9633 110.635 27.713C112.19 29.5513 113.387 31.7162 114.154 34.0762C115.038 36.8193 115.467 39.7133 115.419 42.6216V42.6216ZM105.093 37.9042C105.129 36.0629 104.531 34.2742 103.417 32.8934C102.3 31.4966 100.624 30.7983 98.39 30.7983C97.3633 30.7837 96.3427 30.9732 95.3779 31.3576C94.5018 31.7061 93.6912 32.2266 92.9858 32.8934C92.3083 33.5343 91.7507 34.3127 91.3436 35.1856C90.9368 36.0376 90.7038 36.9761 90.6607 37.9363L105.093 37.9042Z" fill="#141A25"/>
<path d="M143.89 0C143.89 0 170.211 12.8777 177.878 52.7211C177.878 52.7211 164.857 48.7968 151.091 61.9908C151.091 62.0046 159.86 34.4154 143.89 0Z" fill="url(#paint0_linear)" fill-opacity="0.8"/>
<path d="M157.748 6.95459C157.748 6.95459 177.237 16.1235 182 45.8994C182 45.8994 173.889 39.6646 163.035 47.2748C163.035 47.2839 168.791 32.9117 157.748 6.95459Z" fill="url(#paint1_linear)" fill-opacity="0.8"/>
<path d="M26.8576 38.2067C28.2579 37.749 29.5973 37.0925 30.8416 36.2538C32.1276 35.3842 33.2682 34.2802 34.214 32.9896C35.9819 30.5446 36.8673 27.5357 36.87 23.9629C36.87 20.931 36.3478 18.3958 35.3032 16.3573C34.2968 14.365 32.8582 12.6741 31.1139 11.4336C29.3022 10.1632 27.2931 9.26662 25.1861 8.78838C22.9573 8.26291 20.6835 8.0001 18.4036 8.00445H0V60.8081H11.3823V39.8434C11.3823 39.8434 11.9018 39.8663 12.7774 39.8709L23.2506 60.8035H36.8659L24.5912 38.7981C25.3746 38.6331 26.137 38.436 26.8576 38.2067ZM11.3111 30.6012V18.2965H17.5448C18.4507 18.299 19.3552 18.3741 20.2511 18.5212C21.1263 18.654 21.9755 18.9436 22.7647 19.3784C23.5084 19.7944 24.144 20.4094 24.6121 21.1664C25.1244 22.0713 25.3755 23.1241 25.3327 24.1875C25.394 25.2655 25.1591 26.339 24.6581 27.2696C24.1571 28.2002 23.4131 28.9454 22.5217 29.4092C21.6581 29.8663 20.7354 30.1755 19.7861 30.3261C18.8163 30.4967 17.8358 30.584 16.8536 30.5874L11.3111 30.6012Z" fill="#141A25"/>
</g>
<defs>
<linearGradient id="paint0_linear" x1="151.5" y1="62" x2="169" y2="62" gradientUnits="userSpaceOnUse">
<stop stop-color="#0B7FCE"/>
<stop offset="1" stop-color="#5BBAFB"/>
</linearGradient>
<linearGradient id="paint1_linear" x1="149.5" y1="22" x2="193.5" y2="22" gradientUnits="userSpaceOnUse">
<stop offset="0.201798" stop-color="#00BDFF"/>
<stop offset="0.707977" stop-color="#88E0FF"/>
</linearGradient>
<clipPath id="clip0">
<rect width="182" height="62" fill="white"/>
</clipPath>
</defs>
</svg>
