<svg width="130" height="130" viewBox="0 0 130 130" fill="none" xmlns="http://www.w3.org/2000/svg">
<circle cx="65" cy="65" r="65" fill="#F8EC68"/>
<path d="M81.9958 50.0047C79.1599 47.1688 75.3894 45.6071 71.3789 45.6071C67.3683 45.6071 63.5978 47.1688 60.7619 50.0047C57.9261 52.8406 56.3643 56.611 56.3643 60.6216C56.3643 64.6321 57.9261 68.4026 60.7619 71.2385C63.5978 74.0744 67.3683 75.6361 71.3789 75.6361C75.3895 75.6361 79.1599 74.0744 81.9958 71.2385C84.8317 68.4026 86.3935 64.6321 86.3935 60.6216C86.3935 56.611 84.8317 52.8405 81.9958 50.0047ZM71.3789 48.9887C74.3688 48.9887 76.8014 51.4212 76.8014 54.4112C76.8014 57.4013 74.369 59.8337 71.3789 59.8337C68.3889 59.8337 65.9564 57.4013 65.9564 54.4112C65.9564 51.4212 68.389 48.9887 71.3789 48.9887ZM79.6384 70.474H63.1195V67.0318C63.1195 63.0628 66.3484 59.834 70.3173 59.834H72.4405C76.4094 59.834 79.6384 63.063 79.6384 67.0318V70.474Z" fill="#141A25"/>
<path d="M71.3784 56.019C72.2649 56.019 72.9862 55.2977 72.9862 54.4111C72.9862 53.5244 72.265 52.8032 71.3784 52.8032C70.4917 52.8032 69.7705 53.5244 69.7705 54.4111C69.7705 55.2977 70.4919 56.019 71.3784 56.019Z" fill="#141A25"/>
<path d="M72.4402 63.6485H70.317C68.5772 63.6485 67.1401 64.9684 66.9541 66.6594H75.803C75.6171 64.9684 74.1799 63.6485 72.4402 63.6485Z" fill="#141A25"/>
<path d="M90.2028 41.7974C85.1747 36.7692 78.4894 34 71.3785 34C64.2677 34 57.5825 36.7692 52.5543 41.7974C47.5263 46.8254 44.7571 53.5107 44.7571 60.6216C44.7571 65.5608 46.0944 70.2941 48.5955 74.41L33 90.0055L41.9947 99L57.5902 83.4046C61.706 85.9058 66.4394 87.2432 71.3785 87.2432C78.4894 87.2432 85.1747 84.4741 90.2028 79.4459C95.2308 74.4179 98 67.7326 98 60.6217C98 53.5108 95.231 46.8254 90.2028 41.7974ZM84.6928 73.9358C81.1365 77.4922 76.408 79.4508 71.3785 79.4508C66.3491 79.4508 61.6206 77.4922 58.0643 73.9358C54.5081 70.3794 52.5494 65.6511 52.5494 60.6216C52.5494 55.592 54.5079 50.8637 58.0643 47.3074C61.6207 43.751 66.3491 41.7924 71.3785 41.7924C76.408 41.7924 81.1365 43.751 84.6928 47.3074C88.2492 50.8636 90.2077 55.592 90.2077 60.6216C90.2077 65.6509 88.2492 70.3794 84.6928 73.9358Z" fill="#141A25"/>
</svg>
