<svg width="30" height="30" viewBox="0 0 30 30" fill="none" xmlns="http://www.w3.org/2000/svg">
<g clip-path="url(#clip0)">
<path d="M29.4034 5.33203C29.2935 5.0547 29.0514 4.85138 28.7593 4.79097C28.4668 4.73045 28.1642 4.82121 27.9533 5.03214L23.3833 9.60211L20.9263 9.07382L20.3981 6.61687L24.9681 2.04685C25.179 1.83591 25.2696 1.53298 25.2093 1.24089C25.1488 0.948746 24.9455 0.706695 24.6682 0.596656C21.5307 -0.647523 17.9614 0.0902304 15.5753 2.47629C14.4266 3.62496 13.6378 5.06771 13.2942 6.64851C13.0003 8.00097 13.0416 9.39837 13.4109 10.7234L1.21494 22.9193C0.431426 23.7027 0 24.7443 0 25.8523C0 26.9602 0.431426 28.0018 1.21488 28.7852C1.99834 29.5687 3.0399 30.0001 4.14785 30.0001C5.25574 30.0001 6.29742 29.5687 7.08082 28.7852L19.2768 16.5893C20.6018 16.9586 21.9991 16.9998 23.3515 16.7059C24.9324 16.3623 26.3752 15.5735 27.5238 14.4248C29.9099 12.0388 30.6476 8.46955 29.4034 5.33203Z" fill="#141A25"/>
</g>
<defs>
<clipPath id="clip0">
<rect width="30" height="30" fill="white"/>
</clipPath>
</defs>
</svg>
