<svg width="23" height="23" viewBox="0 0 23 23" fill="none" xmlns="http://www.w3.org/2000/svg">
<g clip-path="url(#clip0)">
<path d="M16.8139 12.7294L22.9526 18.8681L20.891 20.9297L14.7524 14.791L16.8139 12.7294Z" fill="url(#paint0_linear)"/>
<path d="M4.17724 0.0937334L10.3159 6.23242L8.23413 8.31422L2.09545 2.17553L4.17724 0.0937334Z" fill="url(#paint1_linear)"/>
<path d="M1.09638 3.1744L1.14413 3.12665L7.48462 9.46709C8.26513 10.6032 9.18796 11.706 10.2361 12.7541C11.325 13.843 12.4712 14.7953 13.6513 15.5931L19.9395 21.8813L19.7999 22.0209L19.7807 22.0393C18.4906 23.2314 16.3125 23.3169 13.6474 22.2801C11.1472 21.3075 8.43916 19.4407 6.02214 17.0237C3.57624 14.5778 1.69865 11.8415 0.735254 9.31885C0.274851 8.11328 0.0457039 7.0109 0.0457039 6.04733C0.0457039 4.85389 0.397263 3.87352 1.09638 3.1744Z" fill="url(#paint2_linear)"/>
<path d="M16.6631 6.29093C17.5347 7.16241 17.8868 8.40095 17.6049 9.60404L16.295 9.29714C16.47 8.55049 16.252 7.78238 15.7118 7.24219C15.1718 6.70214 14.4036 6.48418 13.657 6.65911L13.3501 5.34928C14.5531 5.06739 15.7917 5.4194 16.6631 6.29093Z" fill="url(#paint3_linear)"/>
<path d="M18.5417 4.41234C20.0875 5.9581 20.7118 8.15513 20.2118 10.2894L18.9019 9.98251C19.295 8.30468 18.8048 6.57793 17.5904 5.36365C16.3761 4.14937 14.6495 3.65918 12.9717 4.05229L12.6648 2.74241C14.799 2.24235 16.996 2.86662 18.5417 4.41234Z" fill="url(#paint4_linear)"/>
<path d="M16.5717 0.309215C18.0174 0.70538 19.3448 1.47795 20.4103 2.54349C21.4758 3.60903 22.2485 4.93643 22.6447 6.38215C23.0283 7.78204 23.0557 9.27044 22.724 10.6862L21.4141 10.3793C22.0002 7.87867 21.2692 5.30497 19.459 3.4948C17.649 1.68472 15.0753 0.953932 12.5746 1.53989L12.2677 0.230018C13.6835 -0.10173 15.1718 -0.0743723 16.5717 0.309215Z" fill="url(#paint5_linear)"/>
</g>
<defs>
<linearGradient id="paint0_linear" x1="19.8833" y1="15.7988" x2="17.8217" y2="17.8603" gradientUnits="userSpaceOnUse">
<stop stop-color="#00BDFF"/>
<stop offset="1" stop-color="#72DAFF"/>
</linearGradient>
<linearGradient id="paint1_linear" x1="7.24658" y1="3.16308" x2="5.16478" y2="5.24487" gradientUnits="userSpaceOnUse">
<stop stop-color="#00BDFF"/>
<stop offset="1" stop-color="#72DAFF"/>
</linearGradient>
<linearGradient id="paint2_linear" x1="9.99258" y1="3.12665" x2="9.99258" y2="23" gradientUnits="userSpaceOnUse">
<stop stop-color="#00BDFF"/>
<stop offset="1" stop-color="#72DAFF"/>
</linearGradient>
<linearGradient id="paint3_linear" x1="15.5252" y1="5.25397" x2="15.5252" y2="9.60404" gradientUnits="userSpaceOnUse">
<stop stop-color="#00BDFF"/>
<stop offset="1" stop-color="#72DAFF"/>
</linearGradient>
<linearGradient id="paint4_linear" x1="16.5228" y1="2.5733" x2="16.5228" y2="10.2894" gradientUnits="userSpaceOnUse">
<stop stop-color="#00BDFF"/>
<stop offset="1" stop-color="#72DAFF"/>
</linearGradient>
<linearGradient id="paint5_linear" x1="17.6109" y1="-0.00012207" x2="17.6109" y2="10.6862" gradientUnits="userSpaceOnUse">
<stop stop-color="#00BDFF"/>
<stop offset="1" stop-color="#72DAFF"/>
</linearGradient>
<clipPath id="clip0">
<rect width="23" height="23" fill="white" transform="matrix(-1 0 0 1 23 0)"/>
</clipPath>
</defs>
</svg>
