<svg width="30" height="30" viewBox="0 0 30 30" fill="none" xmlns="http://www.w3.org/2000/svg">
<path d="M13.125 9.37439V7.49939H1.875C0.841875 7.49939 0 8.34127 0 9.37439V13.1244H13.5206C13.26 11.9788 13.125 10.745 13.125 9.37439Z" fill="#141A25"/>
<path d="M29.9231 16.8744C28.6444 18.845 26.6944 20.5213 23.9006 22.1263C23.4712 22.3719 22.9875 22.4994 22.5 22.4994C22.0125 22.4994 21.5287 22.3719 21.105 22.13C18.3112 20.5213 16.3612 18.8431 15.0806 16.8744H0V26.2494C0 27.2844 0.841875 28.1244 1.875 28.1244H28.125C29.16 28.1244 30 27.2844 30 26.2494V16.8744H29.9231ZM8.4375 22.4994H4.6875C4.17 22.4994 3.75 22.0794 3.75 21.5619C3.75 21.0444 4.17 20.6244 4.6875 20.6244H8.4375C8.955 20.6244 9.375 21.0444 9.375 21.5619C9.375 22.0794 8.955 22.4994 8.4375 22.4994Z" fill="#141A25"/>
<path d="M29.4319 4.76356L22.8694 1.95106C22.6312 1.84981 22.3669 1.84981 22.1287 1.95106L15.5663 4.76356C15.2231 4.90981 15 5.24918 15 5.62418V9.37418C15 14.5323 16.9069 17.5473 22.0331 20.5004C22.1775 20.5829 22.3387 20.6242 22.5 20.6242C22.6613 20.6242 22.8225 20.5829 22.9669 20.5004C28.0931 17.5548 30 14.5398 30 9.37418V5.62418C30 5.24918 29.7769 4.90981 29.4319 4.76356ZM26.0456 9.02356L22.2956 13.7111C22.1156 13.9323 21.8456 14.0617 21.5625 14.0617C21.5494 14.0617 21.5344 14.0617 21.5231 14.0617C21.225 14.0486 20.9494 13.8948 20.7825 13.6454L18.9075 10.8329C18.6206 10.4017 18.7369 9.82043 19.1681 9.53356C19.5956 9.24856 20.1788 9.36106 20.4675 9.79418L21.6319 11.5398L24.5794 7.85356C24.9038 7.45043 25.4944 7.38668 25.8975 7.70731C26.3025 8.02793 26.3663 8.61856 26.0456 9.02356Z" fill="#141A25"/>
</svg>
