<svg width="130" height="130" viewBox="0 0 130 130" fill="none" xmlns="http://www.w3.org/2000/svg">
<g clip-path="url(#clip0)">
<path d="M47.8397 64.8869L64.8831 81.9314L79.9529 66.8607L106.652 93.5595C120.852 84.3266 130 68.2413 130 50.8437C130 22.8079 107.192 0 79.1564 0C68.0689 0 57.5318 3.50609 48.6837 10.1404C43.5223 14.0095 39.3993 18.5203 36.2344 23.4982L62.954 49.7736L47.8397 64.8869ZM85.4406 50.7396L94.2926 37.9243H101.505L93.637 49.7567H96.4687V46.567H103.084V49.7567H105.856V55.2107H103.084V58.7872H96.2594V55.2107H85.4406V50.7396ZM73.0438 37.4472C77.991 37.4472 81.4783 40.0101 81.4783 43.9744C81.4783 46.0304 80.9417 47.8782 77.9018 50.6206L74.9214 53.3332H81.9554V58.7872H65.2352V54.4659L72.776 47.4914C74.2063 46.1504 74.4145 45.3451 74.4145 44.63C74.4145 43.6163 73.7302 42.9905 72.3882 42.9905C71.1366 42.9905 69.9444 43.6768 69.3186 44.9285L64.0133 42.2754C65.5338 39.414 68.5439 37.4472 73.0438 37.4472Z" fill="#141A25" fill-opacity="0.1"/>
<path d="M68.9422 88.3197L65.5988 91.6631C65.3459 91.916 65.0414 91.9537 64.8827 91.9537C64.724 91.9537 64.4205 91.916 64.1676 91.6631L38.1065 65.603C37.8536 65.3501 37.8159 65.0466 37.8159 64.8879C37.8159 64.7282 37.8536 64.4247 38.1065 64.1718L41.4499 60.8284L11.0615 30.4399L8.50462 32.9969C-2.83487 44.3373 -2.83487 62.7902 8.50462 74.1307L55.6389 121.265C61.1128 126.739 68.4176 129.753 76.2063 129.753C83.9951 129.753 91.2989 126.739 96.7728 121.265L99.3297 118.708L68.9422 88.3197Z" fill="#141A25" fill-opacity="0.1"/>
<path d="M46.841 55.4378L52.4617 49.8171L21.8184 19.6836L16.2305 25.2725L46.841 55.4378Z" fill="#141A25" fill-opacity="0.1"/>
<path d="M74.3447 82.9163L79.9515 77.3096L110.339 107.698L104.732 113.305L74.3447 82.9163Z" fill="#141A25" fill-opacity="0.1"/>
</g>
<defs>
<clipPath id="clip0">
<rect width="130" height="130" fill="white"/>
</clipPath>
</defs>
</svg>
