<?xml version="1.0"?>
<svg xmlns="http://www.w3.org/2000/svg" xmlns:xlink="http://www.w3.org/1999/xlink" xmlns:svgjs="http://svgjs.com/svgjs" version="1.1" width="512" height="512" x="0" y="0" viewBox="0 0 512 512" style="enable-background:new 0 0 512 512" xml:space="preserve" class=""><g><g xmlns="http://www.w3.org/2000/svg"><path d="m492.344 392.979-.028-.028-128.036-113.283c-5.94-5.261-14.934-4.978-20.549.622l-21.107 21.107-26.172-26.171 46.635-56.769c43.56 22.569 98.47 15.59 135.029-20.959 28.7-28.699 39.17-68.738 31.4-105.697-2.29-10.91-15.78-14.93-23.66-7.04l-49.12 49.119c-8.92 8.92-23.38 8.92-32.3 0-9.524-9.524-16.796-16.795-26.32-26.319-8.92-8.92-8.92-23.379 0-32.289l49.12-49.129c7.89-7.88 3.87-21.369-7.04-23.659-36.96-7.77-77 2.7-105.7 31.399-36.55 36.559-43.53 91.468-20.96 135.026l-56.77 46.634-115.765-115.765 12.82-12.819c5.27-5.299 4.728-13.944-1.075-18.54l-66.341-54.616c-4.95-3.917-12.035-3.507-16.504.962l-35.135 35.135c-4.469 4.469-4.879 11.554-.962 16.503l54.624 66.332c4.689 5.921 13.365 6.25 18.533 1.082l12.827-12.827 113.688 113.685-198.267 162.867c-18.76 14.73-20.42 42.529-3.56 59.398 4.6 4.6 38.8 38.799 43.4 43.399 16.87 16.86 44.67 15.2 59.4-3.56l162.87-198.262 24.093 24.092-21.927 21.927c-5.629 5.643-5.876 14.686-.559 20.626l114.31 127.446c22.597 25.065 61.39 25.868 85.029 2.199l16.553-16.553c23.831-23.83 22.685-62.9-2.474-85.275zm-406.135 47.802c-8.292 0-15-6.719-15-15 0-8.29 6.72-15 15-15 8.264 0 15 6.685 15 15 0 8.28-6.71 15-15 15z" fill="#141a25" data-original="#000000" style="" class=""/></g></g></svg>
