<svg width="1481" height="1637" viewBox="0 0 1481 1637" fill="none" xmlns="http://www.w3.org/2000/svg">
<g clip-path="url(#clip0)">
<path d="M1239.06 663.53C1194 509.017 1091.05 379.826 949.189 299.758C807.324 219.69 643.52 198.33 487.952 239.608C332.386 280.892 203.678 379.872 125.538 518.321C47.3985 656.769 29.1821 818.111 74.2396 972.626C119.304 1127.14 222.248 1256.33 364.113 1336.4C505.978 1416.47 669.781 1437.83 825.349 1396.55C980.915 1355.27 1109.62 1256.28 1187.76 1117.84C1265.9 979.388 1284.12 818.046 1239.06 663.53ZM1165.07 783.363L1166.5 853.528L1062.49 853.453L1061.06 783.287L1165.07 783.363ZM871.217 365.206L933.457 400.334L883.267 489.26L821.027 454.132L871.217 365.206ZM769.409 545.59L831.649 580.718L704.911 805.272L872.718 899.981L838.436 960.722L608.39 830.885L769.409 545.59ZM227.74 535.958L318.861 587.387L284.579 648.128L193.458 596.699L227.74 535.958ZM148.234 852.792L146.802 782.627L250.808 782.702L252.24 852.868L148.234 852.792ZM416.615 488.924L362.798 399.924L423.606 364.886L477.423 453.886L416.615 488.924ZM681.915 315.242L684.01 417.966L612.969 417.916L610.875 315.191L681.915 315.242ZM239.236 1099.59L202.478 1038.8L291.502 987.499L328.261 1048.29L239.236 1099.59ZM442.084 1270.95L379.845 1235.82L430.034 1146.9L492.274 1182.02L442.084 1270.95ZM631.386 1320.92L629.291 1218.19L700.332 1218.24L702.427 1320.97L631.386 1320.92ZM1021.8 648.659L985.043 587.868L1074.07 536.57L1110.83 597.362L1021.8 648.659ZM889.696 1271.27L835.878 1182.27L896.686 1147.23L950.504 1236.23L889.696 1271.27ZM994.44 1048.77L1028.72 988.029L1119.84 1039.46L1085.56 1100.2L994.44 1048.77Z" fill="#00BDFF" fill-opacity="0.07"/>
</g>
<defs>
<clipPath id="clip0">
<rect width="1219.73" height="1190.35" fill="white" transform="translate(418.076) rotate(29.4402)"/>
</clipPath>
</defs>
</svg>
