<?xml version="1.0"?>
<svg xmlns="http://www.w3.org/2000/svg" xmlns:xlink="http://www.w3.org/1999/xlink" xmlns:svgjs="http://svgjs.com/svgjs" version="1.1" width="512" height="512" x="0" y="0" viewBox="0 0 512 512" style="enable-background:new 0 0 512 512" xml:space="preserve" class=""><g><g xmlns="http://www.w3.org/2000/svg"><path d="m136.794 74.723v-74.723h-.015l-74.707 74.707v.016z" fill="#141a25" data-original="#000000" style="" class=""/><g><path d="m191.211 281.607 17.36 10.022 10.023 17.36h20.045l17.361 10.024 17.36-10.022h20.045l10.023-17.36 17.36-10.022v-20.046l10.023-17.359-10.023-17.36v-20.046l-17.36-10.022-10.022-17.36h-20.046l-17.36-10.025-17.36 10.022h-20.045l-10.022 17.36-17.36 10.022v20.046l-10.023 17.36 10.023 17.359v20.047zm49.789-52.405h30v30h-30z" fill="#141a25" data-original="#000000" style="" class=""/><path d="m310.726 338.99h-29.328l-1.249.721 18.237 69.242 13.232-8.656 15.779 1.015-16.495-62.627z" fill="#141a25" data-original="#000000" style="" class=""/><path d="m230.602 338.99h-29.328l-.176-.305-16.495 62.627 15.779-1.015 13.232 8.656 18.237-69.242z" fill="#141a25" data-original="#000000" style="" class=""/><path d="m166.794 0v104.723h-104.722v407.277h387.857v-512zm152.879 430.877-39.696 25.967-23.977-91.034-23.977 91.034-39.696-25.967-47.336 3.044 33.004-125.304-16.783-9.689v-29.327l-14.664-25.398 14.664-25.399v-29.327l25.398-14.663 14.664-25.399h29.328l25.398-14.665 25.398 14.663h29.328l14.664 25.399 25.398 14.663v29.327l14.664 25.399-14.664 25.398v29.327l-16.783 9.689 33.004 125.304z" fill="#141a25" data-original="#000000" style="" class=""/></g></g></g></svg>
