<svg width="694" height="532" viewBox="0 0 694 532" fill="none" xmlns="http://www.w3.org/2000/svg">
<g clip-path="url(#clip0)">
<path d="M32.632 441.3C37.2987 441.3 40.6987 442.217 42.832 444.05C44.9654 445.883 46.032 448.467 46.032 451.8C46.032 453.767 45.582 455.617 44.682 457.35C43.8154 459.05 42.332 460.433 40.232 461.5C38.1654 462.567 35.3487 463.1 31.782 463.1H27.682V477H23.182V441.3H32.632ZM32.232 445.15H27.682V459.25H31.282C34.682 459.25 37.2154 458.7 38.882 457.6C40.5487 456.5 41.382 454.633 41.382 452C41.382 449.7 40.6487 447.983 39.182 446.85C37.7154 445.717 35.3987 445.15 32.232 445.15ZM73.3652 477L69.0652 465.95H54.9152L50.6652 477H46.1152L60.0652 441.15H64.1152L78.0152 477H73.3652ZM67.7152 461.95L63.7152 451.15C63.6152 450.883 63.4486 450.4 63.2152 449.7C62.9819 449 62.7486 448.283 62.5152 447.55C62.3152 446.783 62.1486 446.2 62.0152 445.8C61.7819 446.833 61.5152 447.85 61.2152 448.85C60.9152 449.817 60.6652 450.583 60.4652 451.15L56.4152 461.95H67.7152ZM103.999 449.65C103.999 452.083 103.232 454.017 101.699 455.45C100.165 456.85 98.1155 457.75 95.5488 458.15V458.35C98.5488 458.75 100.832 459.683 102.399 461.15C103.965 462.617 104.749 464.533 104.749 466.9C104.749 470.033 103.549 472.583 101.149 474.55C98.7488 476.517 95.1488 477.5 90.3488 477.5C88.4155 477.5 86.5655 477.35 84.7988 477.05C83.0655 476.783 81.4488 476.283 79.9488 475.55V471.45C81.5155 472.183 83.2155 472.767 85.0488 473.2C86.9155 473.6 88.6655 473.8 90.2988 473.8C93.4988 473.8 95.9155 473.2 97.5488 472C99.2155 470.8 100.049 469.1 100.049 466.9C100.049 464.633 99.0822 462.983 97.1488 461.95C95.2155 460.917 92.5155 460.4 89.0488 460.4H83.9488V456.65H88.7988C92.3322 456.65 94.9655 456.067 96.6988 454.9C98.4655 453.7 99.3488 452.1 99.3488 450.1C99.3488 448.3 98.6822 446.917 97.3488 445.95C96.0155 444.983 94.2822 444.5 92.1488 444.5C89.9155 444.5 88.0488 444.783 86.5488 445.35C85.0822 445.917 83.6488 446.65 82.2488 447.55L80.0988 444.5C81.4988 443.467 83.2155 442.6 85.2488 441.9C87.3155 441.167 89.6322 440.8 92.1988 440.8C96.0655 440.8 98.9988 441.633 100.999 443.3C102.999 444.967 103.999 447.083 103.999 449.65ZM121.743 441.3C126.41 441.3 129.81 442.217 131.943 444.05C134.077 445.883 135.143 448.467 135.143 451.8C135.143 453.767 134.693 455.617 133.793 457.35C132.927 459.05 131.443 460.433 129.343 461.5C127.277 462.567 124.46 463.1 120.893 463.1H116.793V477H112.293V441.3H121.743ZM121.343 445.15H116.793V459.25H120.393C123.793 459.25 126.327 458.7 127.993 457.6C129.66 456.5 130.493 454.633 130.493 452C130.493 449.7 129.76 447.983 128.293 446.85C126.827 445.717 124.51 445.15 121.343 445.15ZM162.477 477L158.177 465.95H144.027L139.777 477H135.227L149.177 441.15H153.227L167.127 477H162.477ZM156.827 461.95L152.827 451.15C152.727 450.883 152.56 450.4 152.327 449.7C152.093 449 151.86 448.283 151.627 447.55C151.427 446.783 151.26 446.2 151.127 445.8C150.893 446.833 150.627 447.85 150.327 448.85C150.027 449.817 149.777 450.583 149.577 451.15L145.527 461.95H156.827ZM172.01 477V441.3H193.21V445.25H176.51V456.4H181.81C185.377 456.4 188.143 456.85 190.11 457.75C192.077 458.617 193.443 459.817 194.21 461.35C194.977 462.85 195.36 464.583 195.36 466.55C195.36 469.817 194.377 472.383 192.41 474.25C190.443 476.083 187.127 477 182.46 477H172.01ZM176.51 473.15H182.01C185.21 473.15 187.46 472.617 188.76 471.55C190.06 470.45 190.71 468.783 190.71 466.55C190.71 464.25 189.993 462.633 188.56 461.7C187.127 460.767 184.693 460.3 181.26 460.3H176.51V473.15ZM233.922 459.1C233.922 462.8 233.289 466.033 232.022 468.8C230.789 471.533 228.955 473.667 226.522 475.2C224.089 476.733 221.072 477.5 217.472 477.5C213.772 477.5 210.689 476.733 208.222 475.2C205.789 473.667 203.972 471.517 202.772 468.75C201.572 465.983 200.972 462.75 200.972 459.05C200.972 455.383 201.572 452.183 202.772 449.45C203.972 446.717 205.789 444.583 208.222 443.05C210.689 441.517 213.789 440.75 217.522 440.75C221.089 440.75 224.089 441.517 226.522 443.05C228.955 444.55 230.789 446.683 232.022 449.45C233.289 452.183 233.922 455.4 233.922 459.1ZM205.722 459.1C205.722 463.6 206.672 467.15 208.572 469.75C210.472 472.317 213.439 473.6 217.472 473.6C221.539 473.6 224.505 472.317 226.372 469.75C228.239 467.15 229.172 463.6 229.172 459.1C229.172 454.6 228.239 451.083 226.372 448.55C224.505 445.983 221.555 444.7 217.522 444.7C213.489 444.7 210.505 445.983 208.572 448.55C206.672 451.083 205.722 454.6 205.722 459.1ZM251.621 477H247.121V445.25H235.971V441.3H262.721V445.25H251.621V477ZM294.154 477H288.754L272.604 458.9V477H268.104V441.3H272.604V458.6L288.354 441.3H293.454L277.954 458.65L294.154 477ZM321.412 477L317.112 465.95H302.962L298.712 477H294.162L308.112 441.15H312.162L326.062 477H321.412ZM315.762 461.95L311.762 451.15C311.662 450.883 311.495 450.4 311.262 449.7C311.029 449 310.795 448.283 310.562 447.55C310.362 446.783 310.195 446.2 310.062 445.8C309.829 446.833 309.562 447.85 309.262 448.85C308.962 449.817 308.712 450.583 308.512 451.15L304.462 461.95H315.762ZM357.525 444.75C353.692 444.75 350.675 446.033 348.475 448.6C346.275 451.167 345.175 454.683 345.175 459.15C345.175 463.583 346.192 467.1 348.225 469.7C350.292 472.267 353.375 473.55 357.475 473.55C359.042 473.55 360.525 473.417 361.925 473.15C363.325 472.883 364.692 472.55 366.025 472.15V476.05C364.692 476.55 363.308 476.917 361.875 477.15C360.475 477.383 358.792 477.5 356.825 477.5C353.192 477.5 350.158 476.75 347.725 475.25C345.292 473.75 343.458 471.617 342.225 468.85C341.025 466.083 340.425 462.833 340.425 459.1C340.425 455.5 341.075 452.333 342.375 449.6C343.708 446.833 345.658 444.683 348.225 443.15C350.792 441.583 353.908 440.8 357.575 440.8C361.342 440.8 364.625 441.5 367.425 442.9L365.625 446.7C364.525 446.2 363.292 445.75 361.925 445.35C360.592 444.95 359.125 444.75 357.525 444.75ZM396.217 477L391.917 465.95H377.767L373.517 477H368.967L382.917 441.15H386.967L400.867 477H396.217ZM390.567 461.95L386.567 451.15C386.467 450.883 386.3 450.4 386.067 449.7C385.833 449 385.6 448.283 385.367 447.55C385.167 446.783 385 446.2 384.867 445.8C384.633 446.833 384.367 447.85 384.067 448.85C383.767 449.817 383.517 450.583 383.317 451.15L379.267 461.95H390.567ZM405.8 441.3H410V460.9C410 462 409.984 463.233 409.95 464.6C409.917 465.967 409.867 467.217 409.8 468.35C409.767 469.483 409.717 470.317 409.65 470.85H409.85L429.5 441.3H434.5V477H430.3V457.6C430.3 456.367 430.317 455.05 430.35 453.65C430.417 452.25 430.484 450.967 430.55 449.8C430.617 448.633 430.667 447.8 430.7 447.3H430.5L410.8 477H405.8V441.3ZM430.1 430.2C429.867 432.7 429.017 434.6 427.55 435.9C426.117 437.167 423.817 437.8 420.65 437.8C417.384 437.8 415.067 437.167 413.7 435.9C412.367 434.633 411.617 432.733 411.45 430.2H415.55C415.717 432 416.184 433.217 416.95 433.85C417.75 434.45 419.017 434.75 420.75 434.75C422.284 434.75 423.484 434.433 424.35 433.8C425.25 433.133 425.784 431.933 425.95 430.2H430.1ZM455.429 477H450.929V445.25H439.779V441.3H466.529V445.25H455.429V477ZM502.086 459.1C502.086 462.8 501.453 466.033 500.186 468.8C498.953 471.533 497.119 473.667 494.686 475.2C492.253 476.733 489.236 477.5 485.636 477.5C481.936 477.5 478.853 476.733 476.386 475.2C473.953 473.667 472.136 471.517 470.936 468.75C469.736 465.983 469.136 462.75 469.136 459.05C469.136 455.383 469.736 452.183 470.936 449.45C472.136 446.717 473.953 444.583 476.386 443.05C478.853 441.517 481.953 440.75 485.686 440.75C489.253 440.75 492.253 441.517 494.686 443.05C497.119 444.55 498.953 446.683 500.186 449.45C501.453 452.183 502.086 455.4 502.086 459.1ZM473.886 459.1C473.886 463.6 474.836 467.15 476.736 469.75C478.636 472.317 481.603 473.6 485.636 473.6C489.703 473.6 492.669 472.317 494.536 469.75C496.403 467.15 497.336 463.6 497.336 459.1C497.336 454.6 496.403 451.083 494.536 448.55C492.669 445.983 489.719 444.7 485.686 444.7C481.653 444.7 478.669 445.983 476.736 448.55C474.836 451.083 473.886 454.6 473.886 459.1ZM509.998 441.3H520.198C524.665 441.3 528.032 441.967 530.298 443.3C532.598 444.6 533.748 446.883 533.748 450.15C533.748 452.25 533.165 454 531.998 455.4C530.832 456.767 529.148 457.65 526.948 458.05V458.3C528.448 458.533 529.798 458.967 530.998 459.6C532.232 460.233 533.198 461.133 533.898 462.3C534.598 463.467 534.948 464.983 534.948 466.85C534.948 470.083 533.832 472.583 531.598 474.35C529.398 476.117 526.382 477 522.548 477H509.998V441.3ZM514.498 456.5H521.098C524.165 456.5 526.265 456.017 527.398 455.05C528.532 454.05 529.098 452.583 529.098 450.65C529.098 448.683 528.398 447.283 526.998 446.45C525.632 445.583 523.432 445.15 520.398 445.15H514.498V456.5ZM514.498 460.25V473.2H521.698C524.865 473.2 527.065 472.583 528.298 471.35C529.532 470.117 530.148 468.5 530.148 466.5C530.148 464.633 529.498 463.133 528.198 462C526.932 460.833 524.648 460.25 521.348 460.25H514.498Z" fill="#1E1E1E"/>
<rect x="189" y="379" width="260" height="21" rx="10" fill="#1E1E1E"/>
<path d="M525.17 211.464C531.9 211.464 535.265 214.156 535.265 219.54C535.265 224.924 532.169 228.289 525.978 229.635L519.921 230.847C515.075 231.654 511.576 234.481 509.422 239.326L449.256 391.962C447.372 397.346 443.468 400.038 437.546 400.038H435.527C429.605 400.038 425.701 397.481 423.817 392.366L360.42 238.922C358.267 234.077 354.767 231.25 349.922 230.443L345.076 229.635C338.885 228.289 335.789 224.924 335.789 219.54C335.789 214.156 339.154 211.464 345.884 211.464H425.836C432.566 211.464 435.931 214.156 435.931 219.54C435.931 225.463 432.835 228.828 426.643 229.635L416.548 231.25C409.28 232.596 406.857 236.634 409.28 243.364L448.448 348.352L486.809 242.96C489.232 236.23 486.809 232.193 479.541 230.847L471.869 229.635C465.677 228.289 462.581 224.924 462.581 219.54C462.581 214.156 465.946 211.464 472.676 211.464H525.17Z" fill="#1E1E1E"/>
<path d="M206.684 372.542C209.376 376.849 213.01 379.541 217.587 380.618L228.085 382.637C234.008 383.983 236.969 387.213 236.969 392.328C236.969 397.443 233.604 400 226.874 400H182.052C176.937 400 172.9 397.712 169.938 393.135L118.252 307.126L96.447 329.335C96.447 335.796 96.447 342.526 96.447 349.525C96.7162 356.524 96.8508 363.524 96.8508 370.523C97.3892 376.714 100.485 380.348 106.138 381.425L115.022 383.04C121.213 384.386 124.309 387.482 124.309 392.328C124.309 397.443 120.944 400 114.214 400H36.6849C29.9549 400 26.5899 397.443 26.5899 392.328C26.5899 387.482 29.6857 384.386 35.8773 383.04L44.7609 381.425C50.6832 380.348 53.6444 376.714 53.6444 370.523C53.9136 361.908 54.0482 353.159 54.0482 344.276C54.3174 335.123 54.452 326.643 54.452 318.837V164.586C54.452 158.394 51.3562 154.894 45.1647 154.087L33.0507 152.472C26.8591 151.664 23.7633 148.837 23.7633 143.992C23.7633 139.146 26.5899 135.916 32.2431 134.301L85.1407 120.572C86.4867 120.033 87.5635 119.764 88.3711 119.764C89.4479 119.764 90.5247 119.764 91.6015 119.764C93.4858 119.764 94.6972 120.033 95.2356 120.572C96.8508 121.648 97.6584 124.879 97.6584 130.263L96.447 177.103V305.511L154.594 246.96C157.555 243.999 158.632 241.307 157.824 238.884C157.286 236.193 155.132 234.577 151.364 234.039L146.114 233.231C139.923 232.424 136.827 229.193 136.827 223.54C136.827 218.156 140.192 215.464 146.922 215.464H215.568C222.297 215.464 225.662 218.156 225.662 223.54C225.662 229.193 222.567 232.424 216.375 233.231L196.589 236.058C192.282 236.865 188.378 238.75 184.879 241.711L148.537 277.245L206.684 372.542Z" fill="#1E1E1E"/>
</g>
<defs>
<clipPath id="clip0">
<rect width="694" height="532" fill="white"/>
</clipPath>
</defs>
</svg>
